<svg width="22" height="22" viewBox="0 0 22 22" fill="none" xmlns="http://www.w3.org/2000/svg">
    <path d="M10.9999 13.006L4.84387 20.233C4.64808 20.4609 4.40735 20.6459 4.13675 20.7764C3.86615 20.9069 3.57151 20.9801 3.2713 20.9915C2.97108 21.0028 2.67175 20.9521 2.39207 20.8424C2.11238 20.7327 1.85837 20.5664 1.64593 20.3539C1.43349 20.1415 1.26721 19.8875 1.15751 19.6078C1.04781 19.3281 0.997041 19.0288 1.00839 18.7286C1.01975 18.4284 1.09298 18.1337 1.22349 17.8631C1.354 17.5925 1.53899 17.3518 1.76687 17.156L8.99387 11M20.9999 10.905L14.9049 17M11.0949 1L4.99987 7.095M10.3329 1.762L5.76187 6.333C5.76187 6.333 8.04787 9.381 10.3329 11.667C12.6189 13.952 15.6669 16.238 15.6669 16.238L20.2379 11.667C20.2379 11.667 17.9519 8.619 15.6669 6.333C13.3809 4.048 10.3329 1.762 10.3329 1.762Z"
          stroke="currentColor" stroke-width="1.5" stroke-linecap="round" stroke-linejoin="round"/>
</svg>
