<svg width="24" height="24" viewBox="0 0 24 24" fill="none" xmlns="http://www.w3.org/2000/svg">
<g clip-path="url(#clip0_4308_11312)">
<path d="M12.8706 23.8283C11.903 23.8324 10.9734 23.4526 10.2854 22.7723L1.22713 13.7141C0.862726 13.3425 0.5809 12.8981 0.400104 12.4101C0.219308 11.9221 0.143619 11.4014 0.177992 10.8821L0.568849 4.57349C0.642226 3.53565 1.0877 2.55916 1.82339 1.82346C2.55909 1.08777 3.53558 0.642296 4.57342 0.568919L10.882 0.178062C11.4011 0.145845 11.9212 0.222538 12.4089 0.403216C12.8966 0.583894 13.3412 0.864564 13.714 1.2272L22.7723 10.2855C23.4834 11.057 23.8602 12.0786 23.8204 13.1271C23.7805 14.1755 23.3273 15.1656 22.5597 15.8809L15.8603 22.5598C15.4703 22.958 15.0053 23.2752 14.4922 23.4929C13.9791 23.7106 13.428 23.8246 12.8706 23.8283ZM11.1288 1.88549H10.9711L4.65571 2.26949C4.03638 2.32091 3.45536 2.59027 3.01592 3.02971C2.57649 3.46914 2.30712 4.05017 2.25571 4.66949L1.89228 10.9712C1.86769 11.2516 1.90398 11.5341 1.99866 11.7992C2.09334 12.0643 2.24418 12.3058 2.44085 12.5072L11.4786 21.5586C11.6767 21.7502 11.9125 21.8986 12.171 21.9942C12.4296 22.0898 12.7051 22.1306 12.9803 22.1141C13.6122 22.0755 14.2068 21.8015 14.6466 21.3461L21.3528 14.6466C21.796 14.2512 22.066 13.6974 22.1045 13.1048C22.143 12.5121 21.9469 11.928 21.5586 11.4786L12.5208 2.44092C12.3377 2.26005 12.1201 2.11772 11.8811 2.02232C11.642 1.92692 11.3862 1.8804 11.1288 1.88549Z" fill="currentColor"/>
<path d="M7.87229 10.7863C7.09938 10.7863 6.35812 10.4793 5.81158 9.93273C5.26505 9.3862 4.95801 8.64494 4.95801 7.87202C4.95806 7.29526 5.12926 6.73148 5.44991 6.25207C5.77057 5.77265 6.22627 5.39917 6.75932 5.1789C7.29237 4.95864 7.87879 4.90149 8.44433 5.0147C9.00988 5.12791 9.52911 5.40639 9.93629 5.81488C10.3424 6.22242 10.6188 6.74106 10.7307 7.30543C10.8426 7.86981 10.7849 8.45467 10.5649 8.98631C10.3449 9.51795 9.97246 9.97258 9.49451 10.2929C9.01657 10.6132 8.45451 10.7849 7.87915 10.7863H7.87229ZM7.87229 6.67202C7.63302 6.66992 7.39859 6.73941 7.1991 6.87155C6.99962 7.00369 6.84419 7.19245 6.75279 7.41359C6.66138 7.63472 6.63818 7.87814 6.68615 8.11256C6.73412 8.34698 6.85108 8.56171 7.02201 8.72916C7.25142 8.94719 7.55581 9.06876 7.87229 9.06876C8.18878 9.06876 8.49317 8.94719 8.72258 8.72916C8.94702 8.50309 9.07298 8.19744 9.07298 7.87888C9.07298 7.56031 8.94702 7.25467 8.72258 7.02859C8.61159 6.91572 8.47925 6.82607 8.33327 6.76485C8.18729 6.70364 8.03059 6.67208 7.87229 6.67202Z" fill="currentColor"/>
</g>
<defs>
<clipPath id="clip0_4308_11312">
<rect width="24" height="24" fill="currentColor"/>
</clipPath>
</defs>
</svg>
