<svg width="24" height="24" viewBox="0 0 24 24" fill="none" xmlns="http://www.w3.org/2000/svg">
    <path d="M1 12C1 18.0751 5.92487 23 12 23C18.0751 23 23 18.0751 23 12C23 5.92487 18.0751 1 12 1C5.92487 1 1 5.92487 1 12Z"
          stroke="currentColor" stroke-width="1.5" stroke-linecap="round" stroke-linejoin="round"/>
    <path d="M15.3002 13.9881C15.3002 14.4306 15.1871 14.8547 14.961 15.2603C14.7349 15.6567 14.4004 15.9886 13.9576 16.256C13.5242 16.5233 13.0013 16.6754 12.3888 16.7123V17.8324H11.6257V16.7123C10.7683 16.6386 10.0711 16.3712 9.53403 15.9103C8.99698 15.4401 8.72375 14.8455 8.71433 14.1264H10.0852C10.1229 14.5136 10.2689 14.8501 10.5233 15.1359C10.7871 15.4216 11.1546 15.6014 11.6257 15.6752V12.218C10.9944 12.0613 10.4856 11.9 10.0993 11.734C9.71304 11.5681 9.38328 11.3099 9.11005 10.9596C8.83681 10.6093 8.7002 10.1391 8.7002 9.54911C8.7002 8.80236 8.96401 8.18469 9.49163 7.69608C10.0287 7.20747 10.74 6.93551 11.6257 6.88019V5.73242H12.3888V6.88019C13.1897 6.94473 13.8351 7.19825 14.325 7.64076C14.815 8.07406 15.0976 8.64103 15.173 9.34168H13.8021C13.755 9.01901 13.609 8.72861 13.364 8.47048C13.119 8.20313 12.794 8.02796 12.3888 7.94499V11.3192C13.0107 11.4759 13.5148 11.6372 13.9011 11.8032C14.2968 11.9599 14.6265 12.2134 14.8903 12.5637C15.1636 12.9141 15.3002 13.3888 15.3002 13.9881ZM10.0145 9.47996C10.0145 9.9317 10.1512 10.2774 10.4244 10.5171C10.6976 10.7568 11.0981 10.955 11.6257 11.1117V7.91734C11.1357 7.96343 10.7447 8.12016 10.4527 8.38751C10.1606 8.64564 10.0145 9.00979 10.0145 9.47996ZM12.3888 15.689C12.8976 15.6337 13.2933 15.4539 13.576 15.1497C13.8681 14.8455 14.0141 14.4813 14.0141 14.0572C14.0141 13.6055 13.8728 13.2598 13.5901 13.0201C13.3075 12.7712 12.907 12.573 12.3888 12.4255V15.689Z"
          fill="currentColor"/>
</svg>
