<svg width="25" height="25" viewBox="0 0 25 25" fill="none" xmlns="http://www.w3.org/2000/svg">
    <path d="M1.62273 16.2333H23.3764M1.77417 8.35038H23.225M1.87539 8.0987C3.04257 5.28105 5.28132 3.04244 8.09914 1.87533C10.917 0.708223 14.083 0.708223 16.9009 1.87533C19.7187 3.04244 21.9574 5.28105 23.1246 8.0987C24.2918 10.9164 24.2918 14.0822 23.1246 16.8999C21.9574 19.7175 19.7187 21.9561 16.9009 23.1233C14.083 24.2904 10.917 24.2904 8.09914 23.1233C5.28132 21.9561 3.04257 19.7175 1.87539 16.8999C0.708205 14.0822 0.708205 10.9164 1.87539 8.0987ZM16.465 18.9547C18.1769 14.8221 18.1769 10.1788 16.465 6.04628C15.6905 4.17652 14.5943 2.48061 13.2432 1.02545C12.7478 0.993383 12.2509 0.993409 11.7556 1.02553C10.405 2.48042 9.30917 4.17592 8.53485 6.04517C6.82298 10.1777 6.82298 14.821 8.53485 18.9536C9.30967 20.824 10.4065 22.5205 11.7583 23.9761C12.2526 24.008 12.7484 24.008 13.2427 23.976C14.594 22.5207 15.6904 20.8246 16.465 18.9547Z"
          stroke="currentColor" stroke-width="1.5" stroke-linejoin="round"/>
</svg>
