<svg width="24" height="24" viewBox="0 0 24 24" fill="none" xmlns="http://www.w3.org/2000/svg">
    <g clip-path="url(#clip0_4393_28)">
        <path d="M4.98014 4.46353L4.98018 4.46349L4.55453 4.03609C4.42696 3.90799 4.21595 3.90902 4.0894 4.03609L4.08939 4.0361L4.07848 4.04705C4.07848 4.04705 4.07848 4.04705 4.07848 4.04706M4.98014 4.46353L3.54707 5.05205C3.12142 4.63562 3.12142 3.9452 3.54707 3.51781L4.07848 4.04706M4.98014 4.46353L4.9871 4.47034C5.11208 4.59262 5.11208 4.81012 4.9871 4.93239L4.98705 4.93235L4.98018 4.93925L4.96927 4.95021C4.83676 5.08326 4.63664 5.08326 4.50413 4.95021L4.07848 4.52281L4.07853 4.52277L4.07157 4.51596C3.95043 4.39744 3.94044 4.18567 4.07848 4.04706M4.98014 4.46353L4.07848 4.04706M2.19626 12.335L2.19626 12.3349H2.18281H1.08049C0.897328 12.3349 0.75 12.1914 0.75 12V11.989C0.75 11.7976 0.897328 11.6541 1.08049 11.6541H2.19372C2.37198 11.6541 2.52422 11.7927 2.52422 12V12.011C2.52422 12.2 2.38231 12.3384 2.19626 12.335ZM12.0189 2.47204L12.0189 2.47192H12.0055H11.9945C11.8114 2.47192 11.6641 2.32841 11.6641 2.13699V1.08493C11.6641 0.898432 11.8065 0.75 12.0055 0.75H12.0164C12.1995 0.75 12.3469 0.893502 12.3469 1.08493V2.14794C12.3469 2.33696 12.205 2.47537 12.0189 2.47204ZM19.0308 4.93931L19.0308 4.93926L19.0238 4.93239C18.9027 4.81388 18.8927 4.6021 19.0307 4.46349L19.452 4.04049C19.5852 3.91282 19.7996 3.91372 19.9324 4.04705C20.0666 4.1818 20.0666 4.38806 19.9324 4.52281L19.5068 4.95021L19.5067 4.95017L19.5 4.95715C19.3836 5.07705 19.1781 5.08714 19.0417 4.95027C19.0417 4.95025 19.0417 4.95023 19.0416 4.95021L19.0308 4.93931ZM4.96867 19.0382L4.96925 19.0388L4.98017 19.0498L4.98018 19.0498C5.10837 19.1785 5.10951 19.3957 4.98018 19.5256L4.55453 19.9529C4.42202 20.086 4.21099 20.086 4.07848 19.9529L3.56827 20.4611L4.07848 19.9529C3.94826 19.8222 3.93756 19.6092 4.07606 19.4577L4.49322 19.0388L4.49381 19.0382C4.52525 19.0066 4.56243 18.9817 4.60313 18.9647L4.31473 18.2724L4.60314 18.9647C4.64384 18.9477 4.68736 18.9391 4.73124 18.9391C4.77513 18.9391 4.81865 18.9477 4.85934 18.9647L5.14776 18.2724L4.85935 18.9647C4.90005 18.9817 4.93723 19.0066 4.96867 19.0382ZM19.4455 19.9639L19.0198 19.5365C18.8905 19.4067 18.8807 19.2004 19.0307 19.0498C19.1573 18.9227 19.3683 18.9217 19.4959 19.0498L19.9215 19.4772C20.0557 19.6119 20.0557 19.8292 19.9215 19.9639C19.789 20.097 19.578 20.097 19.4455 19.9639ZM21.4867 12V11.989C21.4867 11.7976 21.634 11.6541 21.8172 11.6541H22.9195C23.1027 11.6541 23.25 11.7976 23.25 11.989V12C23.25 12.1914 23.1027 12.3349 22.9195 12.3349H21.8172C21.634 12.3349 21.4867 12.1914 21.4867 12ZM6.20703 12C6.20703 8.78391 8.81002 6.17466 12.0055 6.17466C15.2009 6.17466 17.8039 8.78391 17.8039 12C17.8039 15.2161 15.2009 17.8253 12.0055 17.8253C8.81002 17.8253 6.20703 15.2161 6.20703 12ZM12.3359 22.9151C12.3359 23.1065 12.1886 23.25 12.0055 23.25H11.9945C11.8114 23.25 11.6641 23.1065 11.6641 22.9151V21.863C11.6641 21.6716 11.8114 21.5281 11.9945 21.5281H12.0055C12.1886 21.5281 12.3359 21.6716 12.3359 21.863V22.9151Z"
              stroke="currentColor" stroke-width="1.5"/>
    </g>
    <defs>
        <clipPath id="clip0_4393_28">
            <rect width="24" height="24" fill="white"/>
        </clipPath>
    </defs>
</svg>
