<svg width="20" height="25" viewBox="0 0 20 25" fill="none" xmlns="http://www.w3.org/2000/svg">
    <path d="M18.7748 17.2119L17.6816 16.4831V10.1562C17.6816 6.12852 14.5868 2.81061 10.6504 2.45417V1.20312C10.6504 0.814812 10.3356 0.5 9.94727 0.5C9.55895 0.5 9.24414 0.814812 9.24414 1.20312V2.45417C5.30772 2.81061 2.21289 6.12852 2.21289 10.1562V16.4831L1.11977 17.2119C1.02345 17.2761 0.94448 17.3631 0.889857 17.4651C0.835233 17.5672 0.806649 17.6811 0.806641 17.7969V20.6094C0.806641 20.9977 1.12145 21.3125 1.50977 21.3125H6.14453C6.47458 23.1231 8.05356 24.5 9.94727 24.5C11.841 24.5 13.42 23.1231 13.75 21.3125H18.3848C18.7731 21.3125 19.0879 20.9977 19.0879 20.6094V17.7969C19.0879 17.5618 18.9704 17.3422 18.7748 17.2119ZM9.94727 23.0938C8.83216 23.0938 7.88781 22.341 7.58669 21.3125H12.3079C12.0067 22.341 11.0624 23.0938 9.94727 23.0938ZM17.6816 19.9062H2.21289V18.1731L3.30602 17.4444C3.40233 17.3802 3.4813 17.2932 3.53592 17.1911C3.59055 17.0891 3.61913 16.9751 3.61914 16.8594V10.1562C3.61914 6.66692 6.45794 3.82812 9.94727 3.82812C13.4366 3.82812 16.2754 6.66692 16.2754 10.1562V16.8594C16.2754 17.0945 16.3929 17.314 16.5885 17.4444L17.6816 18.1731V19.9062Z"
          fill="currentColor"/>
</svg>
